Patient4_TMGait_0pt7_02_right_49_GRF.mot
version=1
nRows=45
nColumns=19
inDegrees=no
endheader
time	F1x	F1y	F1z	M1x	M1y	M1z	F2x	F2y	F2z	M2x	M2y	M2z	EC1x	EC1y	EC1z	EC2x	EC2y	EC2z
55.52	-32.2713	738.1842	82.9463	-250.0835	-92.9143	729.0685	-9.6195	6.7427	3.4948	0.296	4.149	7.7363	-0.0592	0.0182	-0.0073	-0.0462	0.0165	0.9585
55.5315	-24.3647	730.1404	78.3084	-246.6807	-85.3098	722.7099	-6.6043	5.3005	2.6605	0.42297	2.6973	6.0878	-0.0592	0.0182	-0.0073	-0.0462	0.0165	0.9585
55.543	-17.0044	722.8247	74.0565	-243.5581	-78.1961	715.6087	-4.0292	4.0911	1.7823	0.58906	1.5716	4.7146	-0.0592	0.0182	-0.0073	-0.0462	0.0165	0.9585
55.5545	-10.5733	716.8938	70.3776	-240.9959	-71.9203	708.3185	-2.032	3.2025	1.0085	0.76181	0.77231	3.697	-0.0592	0.0182	-0.0073	-0.0462	0.0165	0.9585
55.566	-5.136	712.6675	67.2891	-239.141	-66.5521	701.2975	-0.65743	2.6442	0.40031	0.92185	0.26999	3.056	-0.0592	0.0182	-0.0073	-0.0462	0.0165	0.9585
55.5775	-0.60142	710.183	64.7088	-238.0238	-61.9954	694.8158	0.20175	2.361	-0.025669	1.0559	-0.0083679	2.7226	-0.0592	0.0182	-0.0073	-0.0462	0.0165	0.9585
55.589	3.2504	709.2573	62.5027	-237.5865	-58.0527	688.962	0.63871	2.276	-0.30033	1.1549	-0.11184	2.6207	-0.0592	0.0182	-0.0073	-0.0462	0.0165	0.9585
55.6005	6.6556	709.6292	60.5632	-237.7267	-54.5369	683.7325	0.78629	2.2639	-0.45751	1.2013	-0.10155	2.597	-0.0592	0.0182	-0.0073	-0.0462	0.0165	0.9585
55.612	9.8326	710.9274	58.7962	-238.2937	-51.2728	678.9706	0.73727	2.2188	-0.54753	1.1769	-0.0055615	2.543	-0.0592	0.0182	-0.0073	-0.0462	0.0165	0.9585
55.6235	12.9787	712.7794	57.1747	-239.1166	-48.1594	674.4943	0.58217	2.0044	-0.60733	1.052	0.14563	2.2983	-0.0592	0.0182	-0.0073	-0.0462	0.0165	0.9585
55.635	16.2631	714.788	55.7157	-240.0153	-45.1486	670.0269	0.36678	1.5143	-0.66645	0.79899	0.33976	1.7514	-0.0592	0.0182	-0.0073	-0.0462	0.0165	0.9585
55.6465	19.8183	716.6596	54.4918	-240.847	-42.2611	665.3691	0.15623	0.63002	-0.74802	0.38355	0.56124	0.74884	-0.0592	0.0182	-0.0073	-0.0462	0.0165	0.9585
55.658	23.7813	718.3384	53.5862	-241.557	-39.5252	660.5114	-0.023378	-0.72394	-0.84666	-0.21771	0.78139	-0.8004	-0.0592	0.0182	-0.0073	-0.0462	0.0165	0.9585
55.6695	28.2024	720.0013	53.0711	-242.1818	-36.9845	655.6649	-0.11797	-2.5735	-0.94717	-1.0111	0.95638	-2.9433	-0.0592	0.0182	-0.0073	-0.0462	0.0165	0.9585
55.681	33.0927	722.059	53.0226	-242.8447	-34.699	651.252	-0.085971	-4.8126	-0.99725	-1.9532	1.012	-5.561	-0.0592	0.0182	-0.0073	-0.0462	0.0165	0.9585
55.6925	38.369	725.0203	53.4862	-243.7096	-32.7266	647.7856	0.13681	-7.1713	-0.94235	-2.9268	0.85986	-8.3468	-0.0592	0.0182	-0.0073	-0.0462	0.0165	0.9585
55.704	43.8791	729.3112	54.5041	-244.9194	-31.1424	645.6815	0.60755	-9.0719	-0.68797	-3.6904	0.36617	-10.6216	-0.0592	0.0182	-0.0073	-0.0462	0.0165	0.9585
55.7155	49.419	735.1563	56.0267	-246.5581	-29.961	645.173	1.3916	-9.6249	-0.12617	-3.865	-0.62484	-11.3368	-0.0592	0.0182	-0.0073	-0.0462	0.0165	0.9585
55.727	54.7758	742.4382	57.9629	-248.6033	-29.1737	646.1697	2.5221	-7.4963	0.86765	-2.8911	-2.2728	-8.922	-0.0592	0.0182	-0.0073	-0.0462	0.0165	0.9585
55.7385	59.7279	750.7147	60.1215	-250.9295	-28.6914	648.2953	4.0164	-0.95022	2.408	-0.039271	-4.7048	-1.3501	-0.0592	0.0182	-0.0073	-0.0462	0.0165	0.9585
55.75	64.1415	759.1658	62.2996	-253.2878	-28.4007	650.8397	5.7649	12.079	4.5607	5.5535	-7.9367	13.8058	-0.0592	0.0182	-0.0073	-0.0462	0.0165	0.9585
55.7615	67.9377	766.6422	64.2471	-255.3199	-28.1327	652.8191	7.5538	33.7348	7.2852	14.775	-11.8029	39.0485	-0.0592	0.0182	-0.0073	-0.0462	0.0165	0.9585
55.773	71.1462	771.6765	65.721	-256.5627	-27.6962	652.9706	8.9129	65.7293	10.354	28.3211	-15.8232	76.3989	-0.0592	0.0182	-0.0073	-0.0462	0.0165	0.9585
55.7845	73.8049	772.5416	66.4624	-256.4661	-26.8877	649.866	9.0914	108.5995	13.2563	46.3775	-19.0656	126.4868	-0.0592	0.0182	-0.0073	-0.0462	0.0165	0.9585
55.796	75.9139	767.3225	66.2009	-254.4182	-25.5088	641.9227	6.8844	160.7092	15.2443	68.1965	-20.1483	187.4099	-0.0592	0.0182	-0.0073	-0.0462	0.0165	0.9585
55.8075	77.3726	754.0993	64.7094	-249.7995	-23.4346	627.617	1.343	217.1761	15.3088	91.676	-17.5294	253.437	-0.0592	0.0182	-0.0073	-0.0462	0.0165	0.9585
55.819	78.0217	731.2046	61.8298	-242.0736	-20.6205	605.6376	-6.8907	270.6177	12.4849	113.7169	-10.5217	315.8789	-0.0592	0.0182	-0.0073	-0.0462	0.0165	0.9585
55.8305	77.6247	697.6989	57.5767	-230.9286	-17.1889	575.3042	-15.7288	315.2989	7.0858	131.9642	-0.41366	367.7961	-0.0592	0.0182	-0.0073	-0.0462	0.0165	0.9585
55.842	75.9696	653.6566	52.1026	-216.3729	-13.3481	536.7743	-23.7501	350.0927	0.043589	145.9765	11.1007	407.68	-0.0592	0.0182	-0.0073	-0.0462	0.0165	0.9585
55.8535	72.9016	600.1617	45.7515	-198.7353	-9.4272	491.0156	-30.2488	377.4823	-7.6882	156.8224	22.6583	438.2832	-0.0592	0.0182	-0.0073	-0.0462	0.0165	0.9585
55.865	68.3818	539.07	38.8888	-178.6034	-5.7115	439.6028	-35.0475	401.0854	-15.0277	166.0713	32.9806	463.8582	-0.0592	0.0182	-0.0073	-0.0462	0.0165	0.9585
55.8765	62.4601	472.8006	31.8731	-156.7545	-2.4364	384.5384	-38.1498	424.1811	-21.2611	175.1402	41.2881	488.2767	-0.0592	0.0182	-0.0073	-0.0462	0.0165	0.9585
55.888	55.2597	404.1739	25.0199	-134.1039	0.23122	328.0878	-39.7369	448.9113	-25.8908	184.9498	47.1333	514.075	-0.0592	0.0182	-0.0073	-0.0462	0.0165	0.9585
55.8995	47.0236	336.2071	18.6385	-111.6382	2.1677	272.6289	-40.0214	476.0831	-29.0005	195.8401	50.7127	542.2108	-0.0592	0.0182	-0.0073	-0.0462	0.0165	0.9585
55.911	38.1645	271.8116	13.0029	-90.3185	3.3292	220.4197	-39.3475	505.7541	-31.0264	207.7895	52.6639	572.8256	-0.0592	0.0182	-0.0073	-0.0462	0.0165	0.9585
55.9225	29.244	213.4699	8.3154	-70.9729	3.7693	173.3319	-38.0403	537.366	-32.6876	220.5128	53.9172	605.3576	-0.0592	0.0182	-0.0073	-0.0462	0.0165	0.9585
55.934	20.8766	162.9179	4.7116	-54.1839	3.5975	132.6543	-36.444	570.072	-34.7142	233.592	55.4049	638.9508	-0.0592	0.0182	-0.0073	-0.0462	0.0165	0.9585
55.9455	13.554	120.8739	2.1969	-40.1998	2.9775	98.8595	-34.8989	602.7883	-37.5893	246.5387	57.7941	672.4344	-0.0592	0.0182	-0.0073	-0.0462	0.0165	0.9585
55.957	7.5439	87.1132	0.65825	-28.9552	2.0768	71.7197	-33.7913	634.5178	-41.4694	258.9305	61.3939	704.7434	-0.0592	0.0182	-0.0073	-0.0462	0.0165	0.9585
55.9685	2.8969	60.7561	-0.13583	-20.1696	1.0823	50.4904	-33.2705	664.6341	-46.1042	270.5301	65.9996	735.1703	-0.0592	0.0182	-0.0073	-0.0462	0.0165	0.9585
55.98	-0.46411	40.6868	-0.42339	-13.478	0.14416	34.2762	-33.3787	692.8557	-51.0734	281.2616	71.1637	763.3832	-0.0592	0.0182	-0.0073	-0.0462	0.0165	0.9585
55.9915	-2.6193	25.7709	-0.41842	-8.5105	-0.60588	22.179	-34.0173	718.9751	-55.9257	291.0868	76.3599	789.1035	-0.0592	0.0182	-0.0073	-0.0462	0.0165	0.9585
56.003	-3.6846	15.0523	-0.29354	-4.9477	-1.0739	13.4663	-35.0909	742.6372	-60.4141	299.8923	81.2693	811.9439	-0.0592	0.0182	-0.0073	-0.0462	0.0165	0.9585
56.0145	-3.8102	7.7486	-0.1296	-2.5261	-1.2553	7.5178	-36.453	763.257	-64.4166	307.4694	85.6972	831.2717	-0.0592	0.0182	-0.0073	-0.0462	0.0165	0.9585
56.026	-3.3342	3.2117	0.014579	-1.0259	-1.2156	3.814	-37.9935	780.2966	-67.9055	313.6085	89.5628	846.5518	-0.0592	0.0182	-0.0073	-0.0462	0.0165	0.9585
